<svg width="512" height="512" viewBox="0 0 512 512" fill="none" xmlns="http://www.w3.org/2000/svg">
<path d="M432 0C476.183 0 512 35.8172 512 80V432C512 476.183 476.183 512 432 512H80C35.8172 512 0 476.183 0 432V80C0 35.8172 35.8172 0 80 0H432ZM404.627 117.754C398.631 112.329 390.698 109.554 382.628 110.059C374.809 110.548 367.502 114.074 362.259 119.867L361.758 120.435L208.326 298.781C208.004 298.877 207.675 298.954 207.346 299.009C207.094 298.94 206.654 298.801 206.023 298.528C205.98 298.51 205.939 298.489 205.896 298.471L144.213 236.787C132.68 225.254 114.094 225.074 102.341 236.246L101.787 236.787L84.7871 253.787C73.0714 265.503 73.0714 284.497 84.7871 296.213L164.865 376.291C164.967 376.396 165.105 376.537 165.275 376.71C165.615 377.055 166.085 377.531 166.659 378.103C167.795 379.233 169.392 380.794 171.2 382.478C173.63 384.739 180.211 390.877 186.955 394.329C186.96 394.331 186.964 394.334 187.001 394.355C187.074 394.399 187.169 394.456 187.559 394.699C187.904 394.915 190.47 396.592 193.598 397.947C201.661 401.443 209.136 401.291 214.196 400.92C217.549 400.674 223.271 400.251 229.176 397.959C232.217 396.778 234.5 395.429 235.574 394.784C236.918 393.978 236.726 394.072 237.335 393.727C241.157 391.561 244.433 388.775 246.053 387.369C248.122 385.573 250.145 383.658 251.797 382.047C253.486 380.4 254.996 378.865 256.075 377.754C256.62 377.193 257.068 376.726 257.388 376.391C257.548 376.223 257.677 376.086 257.771 375.986C257.819 375.937 257.857 375.896 257.887 375.865C257.901 375.85 257.914 375.836 257.924 375.825C257.929 375.82 257.934 375.816 257.938 375.812C257.939 375.81 257.941 375.807 257.942 375.806C257.943 375.805 257.945 375.803 257.945 375.803L236.092 355.25L257.947 375.801C258.238 375.491 258.523 375.175 258.801 374.854L428.209 178.604C438.858 166.268 437.711 147.687 425.627 136.754L404.627 117.754Z" fill="url(#paint0_linear_10_13)"/>
<defs>
<linearGradient id="paint0_linear_10_13" x1="0" y1="512" x2="512" y2="0" gradientUnits="userSpaceOnUse">
<stop stop-color="#FF2D91"/>
<stop offset="1" stop-color="#FF8C00"/>
</linearGradient>
</defs>
</svg>
